<svg xmlns="http://www.w3.org/2000/svg" xmlns:xlink="http://www.w3.org/1999/xlink" width="800" zoomAndPan="magnify" viewBox="0 0 600 449.999984" height="600" preserveAspectRatio="xMidYMid meet" version="1.0"><defs><g/><clipPath id="1f04ce0d0a"><path d="M 45 0 L 524.25 0 L 524.25 450 L 45 450 Z M 45 0 " clip-rule="nonzero"/></clipPath></defs><path fill="#f5d029" d="M 78.066406 29.175781 L 94.589844 29.175781 L 94.589844 45.703125 L 78.066406 45.703125 Z M 78.066406 29.175781 " fill-opacity="1" fill-rule="nonzero"/><path fill="#f5d029" d="M 111.117188 29.175781 L 127.640625 29.175781 L 127.640625 45.703125 L 111.117188 45.703125 Z M 111.117188 29.175781 " fill-opacity="1" fill-rule="nonzero"/><path fill="#f5d029" d="M 144.164062 29.175781 L 160.691406 29.175781 L 160.691406 45.703125 L 144.164062 45.703125 Z M 144.164062 29.175781 " fill-opacity="1" fill-rule="nonzero"/><g clip-path="url(#1f04ce0d0a)"><path fill="#f5d029" d="M 491.183594 -3.878906 L 78.066406 -3.878906 C 76.984375 -3.878906 75.90625 -3.824219 74.828125 -3.714844 C 73.75 -3.609375 72.683594 -3.449219 71.621094 -3.238281 C 70.558594 -3.023438 69.511719 -2.761719 68.476562 -2.445312 C 67.441406 -2.132812 66.425781 -1.765625 65.425781 -1.351562 C 64.425781 -0.9375 63.449219 -0.476562 62.492188 0.0351562 C 61.539062 0.546875 60.613281 1.101562 59.714844 1.703125 C 58.8125 2.304688 57.945312 2.949219 57.109375 3.636719 C 56.273438 4.324219 55.472656 5.046875 54.707031 5.8125 C 53.941406 6.578125 53.214844 7.378906 52.53125 8.214844 C 51.84375 9.050781 51.199219 9.921875 50.597656 10.820312 C 49.996094 11.71875 49.441406 12.648438 48.929688 13.601562 C 48.417969 14.554688 47.957031 15.53125 47.542969 16.53125 C 47.128906 17.53125 46.761719 18.550781 46.449219 19.585938 C 46.132812 20.621094 45.871094 21.667969 45.65625 22.730469 C 45.445312 23.789062 45.285156 24.859375 45.179688 25.9375 C 45.070312 27.011719 45.019531 28.09375 45.015625 29.175781 L 45.015625 359.710938 C 45.019531 360.792969 45.070312 361.871094 45.179688 362.949219 C 45.285156 364.027344 45.445312 365.09375 45.65625 366.15625 C 45.871094 367.21875 46.132812 368.265625 46.449219 369.300781 C 46.761719 370.335938 47.128906 371.355469 47.542969 372.355469 C 47.957031 373.355469 48.417969 374.332031 48.929688 375.285156 C 49.441406 376.238281 49.996094 377.164062 50.597656 378.066406 C 51.199219 378.964844 51.84375 379.832031 52.53125 380.667969 C 53.214844 381.507812 53.941406 382.308594 54.707031 383.074219 C 55.472656 383.835938 56.273438 384.5625 57.109375 385.25 C 57.945312 385.9375 58.8125 386.582031 59.714844 387.183594 C 60.613281 387.785156 61.539062 388.339844 62.492188 388.851562 C 63.449219 389.359375 64.425781 389.824219 65.425781 390.238281 C 66.425781 390.652344 67.441406 391.019531 68.476562 391.332031 C 69.511719 391.648438 70.558594 391.910156 71.621094 392.125 C 72.683594 392.335938 73.75 392.496094 74.828125 392.601562 C 75.90625 392.710938 76.984375 392.761719 78.066406 392.765625 L 223.75 392.765625 L 219.242188 442.34375 L 193.738281 442.34375 L 193.738281 458.871094 L 375.511719 458.871094 L 375.511719 442.34375 L 350.007812 442.34375 L 345.5 392.765625 L 491.183594 392.765625 C 492.265625 392.761719 493.34375 392.710938 494.421875 392.601562 C 495.5 392.496094 496.566406 392.335938 497.628906 392.125 C 498.691406 391.910156 499.738281 391.648438 500.773438 391.332031 C 501.808594 391.019531 502.824219 390.652344 503.824219 390.238281 C 504.824219 389.824219 505.800781 389.359375 506.753906 388.851562 C 507.710938 388.339844 508.636719 387.785156 509.535156 387.183594 C 510.4375 386.582031 511.304688 385.9375 512.140625 385.25 C 512.976562 384.5625 513.777344 383.835938 514.542969 383.074219 C 515.308594 382.308594 516.035156 381.507812 516.71875 380.667969 C 517.40625 379.832031 518.050781 378.964844 518.652344 378.066406 C 519.253906 377.164062 519.808594 376.238281 520.320312 375.285156 C 520.832031 374.332031 521.292969 373.355469 521.707031 372.355469 C 522.121094 371.355469 522.488281 370.335938 522.800781 369.300781 C 523.117188 368.265625 523.378906 367.21875 523.59375 366.15625 C 523.804688 365.09375 523.964844 364.027344 524.070312 362.949219 C 524.179688 361.871094 524.230469 360.792969 524.234375 359.710938 L 524.234375 29.175781 C 524.230469 28.09375 524.179688 27.011719 524.070312 25.9375 C 523.964844 24.859375 523.804688 23.789062 523.59375 22.730469 C 523.378906 21.667969 523.117188 20.621094 522.800781 19.585938 C 522.488281 18.550781 522.121094 17.53125 521.707031 16.53125 C 521.292969 15.53125 520.832031 14.554688 520.320312 13.601562 C 519.808594 12.648438 519.253906 11.71875 518.652344 10.820312 C 518.050781 9.921875 517.40625 9.050781 516.71875 8.214844 C 516.035156 7.378906 515.308594 6.578125 514.542969 5.8125 C 513.777344 5.046875 512.976562 4.324219 512.140625 3.636719 C 511.304688 2.949219 510.4375 2.304688 509.535156 1.703125 C 508.636719 1.101562 507.710938 0.546875 506.753906 0.0351562 C 505.800781 -0.476562 504.824219 -0.9375 503.824219 -1.351562 C 502.824219 -1.765625 501.808594 -2.132812 500.773438 -2.445312 C 499.738281 -2.761719 498.691406 -3.023438 497.628906 -3.238281 C 496.566406 -3.449219 495.5 -3.609375 494.421875 -3.714844 C 493.34375 -3.824219 492.265625 -3.878906 491.183594 -3.878906 Z M 78.066406 12.648438 L 491.183594 12.648438 C 491.726562 12.648438 492.265625 12.675781 492.804688 12.730469 C 493.339844 12.785156 493.875 12.863281 494.40625 12.96875 C 494.9375 13.074219 495.460938 13.207031 495.980469 13.363281 C 496.496094 13.523438 497.003906 13.703125 497.503906 13.910156 C 498.003906 14.117188 498.492188 14.351562 498.96875 14.605469 C 499.445312 14.859375 499.910156 15.140625 500.359375 15.441406 C 500.808594 15.742188 501.242188 16.0625 501.660156 16.40625 C 502.078125 16.75 502.480469 17.113281 502.863281 17.496094 C 503.246094 17.878906 503.609375 18.277344 503.953125 18.695312 C 504.292969 19.113281 504.617188 19.546875 504.917969 19.996094 C 505.21875 20.449219 505.496094 20.910156 505.75 21.386719 C 506.007812 21.867188 506.238281 22.355469 506.445312 22.855469 C 506.652344 23.351562 506.835938 23.863281 506.992188 24.378906 C 507.148438 24.898438 507.28125 25.421875 507.386719 25.953125 C 507.492188 26.484375 507.574219 27.015625 507.628906 27.554688 C 507.679688 28.09375 507.707031 28.632812 507.707031 29.175781 L 507.707031 62.230469 L 61.542969 62.230469 L 61.542969 29.175781 C 61.542969 28.632812 61.570312 28.09375 61.621094 27.554688 C 61.675781 27.015625 61.757812 26.484375 61.863281 25.953125 C 61.96875 25.421875 62.101562 24.898438 62.257812 24.378906 C 62.414062 23.863281 62.597656 23.351562 62.804688 22.855469 C 63.011719 22.355469 63.242188 21.867188 63.5 21.386719 C 63.753906 20.910156 64.03125 20.449219 64.332031 19.996094 C 64.632812 19.546875 64.957031 19.113281 65.296875 18.695312 C 65.640625 18.277344 66.003906 17.878906 66.386719 17.496094 C 66.769531 17.113281 67.171875 16.75 67.589844 16.40625 C 68.007812 16.0625 68.441406 15.742188 68.890625 15.441406 C 69.339844 15.140625 69.804688 14.859375 70.28125 14.605469 C 70.757812 14.351562 71.246094 14.117188 71.746094 13.910156 C 72.246094 13.703125 72.753906 13.523438 73.269531 13.363281 C 73.789062 13.207031 74.3125 13.074219 74.84375 12.96875 C 75.375 12.863281 75.910156 12.785156 76.445312 12.730469 C 76.984375 12.675781 77.523438 12.648438 78.066406 12.648438 Z M 507.707031 78.753906 L 507.707031 310.128906 L 61.542969 310.128906 L 61.542969 78.753906 Z M 333.414062 442.34375 L 235.835938 442.34375 L 240.34375 392.765625 L 328.90625 392.765625 Z M 491.183594 376.238281 L 78.066406 376.238281 C 77.523438 376.238281 76.984375 376.210938 76.445312 376.15625 C 75.910156 376.101562 75.375 376.023438 74.84375 375.917969 C 74.3125 375.8125 73.789062 375.679688 73.269531 375.523438 C 72.753906 375.363281 72.246094 375.183594 71.746094 374.972656 C 71.246094 374.765625 70.757812 374.535156 70.28125 374.28125 C 69.804688 374.023438 69.339844 373.746094 68.890625 373.445312 C 68.441406 373.144531 68.007812 372.824219 67.589844 372.480469 C 67.171875 372.136719 66.769531 371.773438 66.386719 371.390625 C 66.003906 371.007812 65.640625 370.609375 65.296875 370.191406 C 64.953125 369.773438 64.632812 369.335938 64.332031 368.886719 C 64.03125 368.4375 63.753906 367.976562 63.5 367.496094 C 63.242188 367.019531 63.011719 366.53125 62.804688 366.03125 C 62.597656 365.53125 62.414062 365.023438 62.257812 364.507812 C 62.101562 363.988281 61.96875 363.464844 61.863281 362.933594 C 61.757812 362.402344 61.675781 361.867188 61.621094 361.332031 C 61.570312 360.792969 61.542969 360.25 61.542969 359.710938 L 61.542969 326.65625 L 507.707031 326.65625 L 507.707031 359.710938 C 507.707031 360.25 507.679688 360.792969 507.628906 361.332031 C 507.574219 361.867188 507.492188 362.402344 507.386719 362.933594 C 507.28125 363.464844 507.148438 363.988281 506.992188 364.507812 C 506.835938 365.023438 506.652344 365.53125 506.445312 366.03125 C 506.238281 366.53125 506.007812 367.019531 505.75 367.496094 C 505.496094 367.976562 505.21875 368.4375 504.917969 368.886719 C 504.617188 369.335938 504.296875 369.773438 503.953125 370.191406 C 503.609375 370.609375 503.246094 371.007812 502.863281 371.390625 C 502.480469 371.773438 502.078125 372.136719 501.660156 372.480469 C 501.242188 372.824219 500.808594 373.144531 500.359375 373.445312 C 499.910156 373.746094 499.445312 374.023438 498.96875 374.28125 C 498.492188 374.535156 498.003906 374.765625 497.503906 374.972656 C 497.003906 375.183594 496.496094 375.363281 495.980469 375.523438 C 495.460938 375.679688 494.9375 375.8125 494.40625 375.917969 C 493.875 376.023438 493.339844 376.101562 492.804688 376.15625 C 492.265625 376.210938 491.726562 376.238281 491.183594 376.238281 Z M 491.183594 376.238281 " fill-opacity="1" fill-rule="nonzero"/></g><path fill="#f5d029" d="M 276.363281 343.183594 L 292.886719 343.183594 L 292.886719 359.710938 L 276.363281 359.710938 Z M 276.363281 343.183594 " fill-opacity="1" fill-rule="nonzero"/><path fill="#f5d029" d="M 86.328125 169.652344 L 102.851562 169.652344 L 102.851562 186.179688 L 86.328125 186.179688 Z M 86.328125 169.652344 " fill-opacity="1" fill-rule="nonzero"/><path fill="#f5d029" d="M 119.378906 169.652344 L 243.3125 169.652344 L 243.3125 186.179688 L 119.378906 186.179688 Z M 119.378906 169.652344 " fill-opacity="1" fill-rule="nonzero"/><path fill="#f5d029" d="M 86.328125 202.707031 L 102.851562 202.707031 L 102.851562 219.234375 L 86.328125 219.234375 Z M 86.328125 202.707031 " fill-opacity="1" fill-rule="nonzero"/><path fill="#f5d029" d="M 119.378906 202.707031 L 334.199219 202.707031 L 334.199219 219.234375 L 119.378906 219.234375 Z M 119.378906 202.707031 " fill-opacity="1" fill-rule="nonzero"/><path fill="#f5d029" d="M 86.328125 235.761719 L 102.851562 235.761719 L 102.851562 252.285156 L 86.328125 252.285156 Z M 86.328125 235.761719 " fill-opacity="1" fill-rule="nonzero"/><path fill="#f5d029" d="M 119.378906 235.761719 L 276.363281 235.761719 L 276.363281 252.285156 L 119.378906 252.285156 Z M 119.378906 235.761719 " fill-opacity="1" fill-rule="nonzero"/><path fill="#f5d029" d="M 86.328125 268.8125 L 102.851562 268.8125 L 102.851562 285.339844 L 86.328125 285.339844 Z M 86.328125 268.8125 " fill-opacity="1" fill-rule="nonzero"/><path fill="#f5d029" d="M 119.378906 268.8125 L 358.984375 268.8125 L 358.984375 285.339844 L 119.378906 285.339844 Z M 119.378906 268.8125 " fill-opacity="1" fill-rule="nonzero"/><path fill="#f5d029" d="M 88.75 134.179688 L 105.273438 150.707031 L 116.957031 139.019531 L 106.273438 128.335938 L 116.957031 117.652344 L 105.273438 105.964844 L 88.75 122.492188 C 88.363281 122.875 88.023438 123.292969 87.722656 123.746094 C 87.417969 124.195312 87.164062 124.671875 86.957031 125.171875 C 86.75 125.675781 86.59375 126.191406 86.488281 126.722656 C 86.382812 127.257812 86.328125 127.792969 86.328125 128.335938 C 86.328125 128.878906 86.382812 129.414062 86.488281 129.949219 C 86.59375 130.480469 86.75 130.996094 86.957031 131.5 C 87.164062 132 87.417969 132.476562 87.722656 132.925781 C 88.023438 133.378906 88.363281 133.796875 88.75 134.179688 Z M 88.75 134.179688 " fill-opacity="1" fill-rule="nonzero"/><path fill="#f5d029" d="M 171.371094 139.019531 L 183.058594 150.707031 L 199.582031 134.179688 C 199.964844 133.796875 200.308594 133.378906 200.609375 132.925781 C 200.910156 132.476562 201.164062 132 201.371094 131.5 C 201.582031 130.996094 201.738281 130.480469 201.84375 129.949219 C 201.949219 129.414062 202 128.878906 202 128.335938 C 202 127.792969 201.949219 127.257812 201.84375 126.722656 C 201.738281 126.191406 201.582031 125.675781 201.371094 125.171875 C 201.164062 124.671875 200.910156 124.195312 200.609375 123.746094 C 200.308594 123.292969 199.964844 122.875 199.582031 122.492188 L 183.058594 105.964844 L 171.371094 117.652344 L 182.054688 128.335938 Z M 171.371094 139.019531 " fill-opacity="1" fill-rule="nonzero"/><path fill="#f5d029" d="M 128.0625 150.511719 L 144.589844 100.933594 L 160.265625 106.160156 L 143.738281 155.738281 Z M 128.0625 150.511719 " fill-opacity="1" fill-rule="nonzero"/><path fill="#f5d029" d="M 350.722656 202.707031 L 400.296875 202.707031 L 400.296875 219.234375 L 350.722656 219.234375 Z M 350.722656 202.707031 " fill-opacity="1" fill-rule="nonzero"/><path fill="#f5d029" d="M 375.511719 268.8125 L 392.035156 268.8125 L 392.035156 285.339844 L 375.511719 285.339844 Z M 375.511719 268.8125 " fill-opacity="1" fill-rule="nonzero"/><path fill="#f5d029" d="M 408.558594 268.8125 L 425.085938 268.8125 L 425.085938 285.339844 L 408.558594 285.339844 Z M 408.558594 268.8125 " fill-opacity="1" fill-rule="nonzero"/><path fill="#f5d029" d="M 259.839844 169.652344 L 276.363281 169.652344 L 276.363281 186.179688 L 259.839844 186.179688 Z M 259.839844 169.652344 " fill-opacity="1" fill-rule="nonzero"/><g fill="#000000" fill-opacity="1"><g transform="translate(0.0000108667, 339.872006)"><g><path d="M 84.046875 -213.203125 L 82 -213.203125 C 80.363281 -195.160156 77.492188 -161.332031 73.390625 -111.71875 C 69.285156 -62.113281 67.234375 -35.125 67.234375 -30.75 C 67.234375 -22.28125 71.472656 -18.046875 79.953125 -18.046875 L 96.765625 -18.453125 L 97.578125 -16.8125 L 93.890625 1.640625 C 90.878906 1.367188 85.476562 1.023438 77.6875 0.609375 C 69.90625 0.203125 62.050781 0 54.125 0 C 47.289062 0 40.25 0.476562 33 1.4375 C 25.757812 2.394531 21.046875 3.007812 18.859375 3.28125 L 20.90625 -15.578125 C 29.65625 -16.671875 35.941406 -19.472656 39.765625 -23.984375 C 43.597656 -28.492188 46.0625 -36.21875 47.15625 -47.15625 C 49.882812 -72.84375 53.503906 -107.484375 58.015625 -151.078125 C 62.523438 -194.679688 64.78125 -219.078125 64.78125 -224.265625 C 64.78125 -231.378906 61.976562 -236.710938 56.375 -240.265625 C 50.769531 -243.816406 41.816406 -246 29.515625 -246.8125 L 28.296875 -248.875 L 31.5625 -263.21875 C 35.125 -262.945312 42.097656 -262.535156 52.484375 -261.984375 C 62.867188 -261.441406 70.796875 -261.171875 76.265625 -261.171875 C 81.179688 -261.171875 86.578125 -261.375 92.453125 -261.78125 C 98.328125 -262.195312 102.222656 -262.539062 104.140625 -262.8125 C 115.078125 -227.550781 125.671875 -194.816406 135.921875 -164.609375 C 146.171875 -134.410156 154.570312 -110.425781 161.125 -92.65625 C 167.6875 -74.894531 171.789062 -63.828125 173.4375 -59.453125 L 175.484375 -59.453125 C 179.304688 -69.566406 188.050781 -93.617188 201.71875 -131.609375 C 215.382812 -169.597656 230.28125 -213.054688 246.40625 -261.984375 C 246.40625 -262.265625 250.097656 -262.128906 257.484375 -261.578125 L 273.46875 -261.171875 C 278.664062 -261.171875 286.457031 -261.507812 296.84375 -262.1875 C 307.226562 -262.875 314.195312 -263.351562 317.75 -263.625 L 318.5625 -261.984375 L 316.515625 -246.8125 C 304.765625 -245.445312 296.425781 -243.054688 291.5 -239.640625 C 286.582031 -236.222656 284.125 -231.097656 284.125 -224.265625 C 284.125 -218.253906 285.351562 -195.910156 287.8125 -157.234375 C 290.28125 -118.554688 292.609375 -85.140625 294.796875 -56.984375 C 296.160156 -45.785156 297.523438 -37.519531 298.890625 -32.1875 C 300.253906 -26.851562 302.164062 -23.160156 304.625 -21.109375 C 307.082031 -19.066406 310.5 -18.046875 314.875 -18.046875 C 317.332031 -18.046875 319.65625 -18.179688 321.84375 -18.453125 C 324.03125 -18.722656 325.535156 -18.859375 326.359375 -18.859375 L 327.1875 -17.21875 L 323.484375 1.234375 C 320.753906 0.953125 315.628906 0.675781 308.109375 0.40625 C 300.597656 0.132812 292.742188 0 284.546875 0 C 277.160156 0 268.890625 0.476562 259.734375 1.4375 C 250.578125 2.394531 244.632812 3.007812 241.90625 3.28125 L 243.546875 -15.578125 C 252.015625 -16.671875 258.160156 -18.859375 261.984375 -22.140625 C 265.816406 -25.421875 267.734375 -30.066406 267.734375 -36.078125 C 267.734375 -41.816406 265.75 -68.46875 261.78125 -116.03125 C 257.820312 -163.59375 255.160156 -195.984375 253.796875 -213.203125 L 251.734375 -213.203125 L 172.609375 4.921875 L 162.765625 7.796875 Z M 84.046875 -213.203125 "/></g></g></g><g fill="#000000" fill-opacity="1"><g transform="translate(347.265084, 339.872006)"><g><path d="M 54.53125 -15.984375 C 68.195312 -17.078125 77.625 -18.785156 82.8125 -21.109375 C 88.007812 -23.429688 91.425781 -27.664062 93.0625 -33.8125 C 94.707031 -39.96875 95.53125 -50.835938 95.53125 -66.421875 L 95.53125 -245.1875 C 72.300781 -244.363281 56.515625 -243.0625 48.171875 -241.28125 C 39.835938 -239.507812 34.164062 -235.546875 31.15625 -229.390625 C 28.15625 -223.242188 25.421875 -211.285156 22.953125 -193.515625 L 3.6875 -191.875 C 6.96875 -217.84375 9.019531 -241.488281 9.84375 -262.8125 L 13.53125 -266.09375 L 47.5625 -261.578125 L 174.65625 -261.578125 L 209.515625 -266.09375 L 213.203125 -262.8125 C 214.023438 -240.394531 216.070312 -217.296875 219.34375 -193.515625 L 200.078125 -191.875 C 197.066406 -209.914062 194.054688 -222.078125 191.046875 -228.359375 C 188.046875 -234.648438 182.71875 -238.753906 175.0625 -240.671875 C 167.414062 -242.585938 152.660156 -244.09375 130.796875 -245.1875 C 129.148438 -228.78125 127.644531 -199.800781 126.28125 -158.25 C 124.914062 -116.707031 124.234375 -79.265625 124.234375 -45.921875 C 124.234375 -35.804688 126.007812 -28.628906 129.5625 -24.390625 C 133.113281 -20.160156 139.125 -18.046875 147.59375 -18.046875 C 155.800781 -18.046875 163.320312 -18.453125 170.15625 -19.265625 L 171.375 -17.625 L 167.6875 1.234375 L 154.15625 0.8125 L 107.421875 0 C 92.390625 0 73.664062 0.546875 51.25 1.640625 Z M 54.53125 -15.984375 "/></g></g></g></svg>